<svg width="50" height="50" viewBox="0 0 50 50" fill="none" xmlns="http://www.w3.org/2000/svg">
<path d="M13.542 16.6667C15.2679 16.6667 16.667 15.2676 16.667 13.5417C16.667 11.8159 15.2679 10.4167 13.542 10.4167C11.8161 10.4167 10.417 11.8159 10.417 13.5417C10.417 15.2676 11.8161 16.6667 13.542 16.6667Z" fill="#0F0F0F"/>
<path d="M10.417 20.8333C10.417 19.6827 11.3497 18.75 12.5003 18.75H14.5837C15.7342 18.75 16.667 19.6827 16.667 20.8333V37.5C16.667 38.6506 15.7342 39.5833 14.5837 39.5833H12.5003C11.3497 39.5833 10.417 38.6506 10.417 37.5V20.8333Z" fill="#0F0F0F"/>
<path d="M22.9163 39.5833H24.9997C26.1503 39.5833 27.083 38.6506 27.083 37.5V28.125C27.083 25 33.333 22.9167 33.333 27.0833V37.5008C33.333 38.6515 34.2657 39.5833 35.4163 39.5833H37.4997C38.6503 39.5833 39.583 38.6506 39.583 37.5V25C39.583 20.8333 36.458 18.75 32.2913 18.75C28.1247 18.75 27.083 21.875 27.083 21.875V20.8333C27.083 19.6827 26.1503 18.75 24.9997 18.75H22.9163C21.7657 18.75 20.833 19.6827 20.833 20.8333V37.5C20.833 38.6506 21.7657 39.5833 22.9163 39.5833Z" fill="#0F0F0F"/>
<path fill-rule="evenodd" clip-rule="evenodd" d="M41.6663 2.08325C45.1182 2.08325 47.9163 4.88148 47.9163 8.33325V41.6666C47.9163 45.1185 45.1182 47.9166 41.6663 47.9166H8.33301C4.88124 47.9166 2.08301 45.1185 2.08301 41.6666V8.33325C2.08301 4.88148 4.88124 2.08325 8.33301 2.08325H41.6663ZM41.6663 6.24992C42.817 6.24992 43.7497 7.18267 43.7497 8.33325V41.6666C43.7497 42.8172 42.817 43.7499 41.6663 43.7499H8.33301C7.18242 43.7499 6.24967 42.8172 6.24967 41.6666V8.33325C6.24967 7.18267 7.18242 6.24992 8.33301 6.24992H41.6663Z" fill="#0F0F0F"/>
</svg>
