<svg width="50" height="50" viewBox="0 0 50 50" fill="none" xmlns="http://www.w3.org/2000/svg">
<path d="M31.8756 46.9303C33.479 46.9303 33.479 49.3687 31.8756 49.3687H2.49723C1.82399 49.3687 1.27832 48.8225 1.27832 48.1492V11.435C1.27832 11.0984 1.41474 10.793 1.63502 10.5728L11.2197 0.988634C11.4577 0.75064 11.7695 0.631348 12.0814 0.631348H39.6538C40.3271 0.631348 40.8733 1.17761 40.8733 1.85085V23.1912C40.8733 24.7951 38.4349 24.7951 38.4349 23.1912V3.06975H12.5863L3.71673 11.9399V46.9303H31.8756ZM11.1347 36.1834C9.53075 36.1834 9.53075 33.745 11.1347 33.745H29.2453C30.8492 33.745 30.8492 36.1834 29.2453 36.1834H11.1347ZM11.1347 19.962C9.53075 19.962 9.53075 17.5236 11.1347 17.5236H29.2453C30.8492 17.5236 30.8492 19.962 29.2453 19.962H11.1347ZM11.1347 25.3691C9.53075 25.3691 9.53075 22.9307 11.1347 22.9307H29.2453C30.8492 22.9307 30.8492 25.3691 29.2453 25.3691H11.1347ZM11.1347 30.7763C9.53075 30.7763 9.53075 28.3379 11.1347 28.3379H29.2453C30.8492 28.3379 30.8492 30.7763 29.2453 30.7763H11.1347ZM11.1347 14.5549C9.53075 14.5549 9.53075 12.1165 11.1347 12.1165H29.2453C30.8492 12.1165 30.8492 14.5549 29.2453 14.5549H11.1347ZM40.4599 28.6249C43.4033 28.6249 45.7891 31.0107 45.7891 33.9541C45.7891 35.023 45.4743 36.018 44.9328 36.8519C47.1515 38.3242 48.5629 40.7543 48.72 43.4189C48.8139 45.0169 46.3844 45.1593 46.2911 43.5618C46.1665 41.4541 44.9558 39.5767 43.0944 38.587C42.3172 39.0299 41.4184 39.2826 40.4599 39.2826C39.4229 39.2826 38.455 38.9868 37.6365 38.4742C35.6617 39.4261 34.353 41.3703 34.2237 43.5618C34.1298 45.1593 31.7008 45.0169 31.7947 43.4189C31.9595 40.6326 33.4925 38.111 35.8743 36.67C35.4024 35.8745 35.1313 34.9462 35.1313 33.9541C35.1313 31.0113 37.5172 28.6249 40.4599 28.6249ZM40.4599 31.0633C38.8637 31.0633 37.5697 32.3578 37.5697 33.9541C37.5697 35.5503 38.8637 36.8442 40.4599 36.8442C42.0562 36.8442 43.3507 35.5503 43.3507 33.9541C43.3507 32.3578 42.0568 31.0633 40.4599 31.0633Z" fill="black"/>
</svg>
